{
	"asset":{
		"generator":"Khronos glTF Blender I/O v3.6.27",
		"version":"2.0"
	},
	"scene":0,
	"scenes":[
		{
			"name":"Scene",
			"nodes":[
				0,
				1,
				2,
				3,
				4,
				5
			]
		}
	],
	"nodes":[
		{
			"mesh":0,
			"name":"Energy Ring.001",
			"rotation":[
				0,
				-0.9999997019767761,
				0,
				0.0007894793525338173
			],
			"scale":[
				9.599603652954102,
				2.998762369155884,
				9.599603652954102
			],
			"translation":[
				2.219590187072754,
				0.7210015058517456,
				0.0004631706979125738
			]
		},
		{
			"mesh":1,
			"name":"Metal Part.002",
			"rotation":[
				0,
				-0.9999997019767761,
				0,
				0.0007894793525338173
			],
			"scale":[
				9.292953491210938,
				2.9987664222717285,
				9.292953491210938
			],
			"translation":[
				0.025559425354003906,
				0.6365559101104736,
				0.008733338676393032
			]
		},
		{
			"mesh":2,
			"name":"Bolt.001",
			"rotation":[
				0,
				-0.9999997019767761,
				0,
				0.0007894793525338173
			],
			"scale":[
				9.599603652954102,
				9.599603652954102,
				9.599603652954102
			],
			"translation":[
				-0.001834869384765625,
				0.43808114528656006,
				-0.0034969551488757133
			]
		},
		{
			"mesh":3,
			"name":"Bolt Sticker.001",
			"rotation":[
				0,
				-0.9999997019767761,
				0,
				0.0007894793525338173
			],
			"scale":[
				9.599603652954102,
				9.599603652954102,
				9.599603652954102
			],
			"translation":[
				-0.001834869384765625,
				0.43808114528656006,
				-0.0034969551488757133
			]
		},
		{
			"mesh":4,
			"name":"Torus",
			"scale":[
				0.5986359119415283,
				0.5986359119415283,
				0.5986359119415283
			],
			"translation":[
				0.019761085510253906,
				0.3428243100643158,
				0
			]
		},
		{
			"mesh":5,
			"name":"Performance Tip",
			"scale":[
				0.5986359119415283,
				0.5986359119415283,
				0.5986359119415283
			],
			"translation":[
				10.124195098876953,
				0.6073949337005615,
				0
			]
		}
	],
	"materials":[
		{
			"doubleSided":true,
			"name":"Translucent red.004",
			"pbrMetallicRoughness":{}
		},
		{
			"doubleSided":true,
			"name":"Material",
			"pbrMetallicRoughness":{
				"baseColorFactor":[
					0.800000011920929,
					0.800000011920929,
					0.800000011920929,
					1
				],
				"roughnessFactor":0.12862476706504822
			}
		},
		{
			"doubleSided":true,
			"name":"Material.019",
			"pbrMetallicRoughness":{
				"baseColorFactor":[
					0.5149473547935486,
					0.5401879549026489,
					0.5822084546089172,
					1
				],
				"metallicFactor":0,
				"roughnessFactor":0.5
			}
		},
		{
			"doubleSided":true,
			"name":"Material.018",
			"pbrMetallicRoughness":{
				"baseColorTexture":{
					"index":0
				},
				"metallicFactor":0,
				"roughnessFactor":0.5
			}
		}
	],
	"meshes":[
		{
			"name":"Cylinder.018",
			"primitives":[
				{
					"attributes":{
						"POSITION":0,
						"NORMAL":1,
						"TEXCOORD_0":2
					},
					"indices":3,
					"material":0
				}
			]
		},
		{
			"name":"Cylinder.020",
			"primitives":[
				{
					"attributes":{
						"POSITION":4,
						"NORMAL":5,
						"TEXCOORD_0":6
					},
					"indices":7,
					"material":1
				}
			]
		},
		{
			"name":"Cube.007",
			"primitives":[
				{
					"attributes":{
						"POSITION":8,
						"NORMAL":9,
						"TEXCOORD_0":10
					},
					"indices":11,
					"material":2
				}
			]
		},
		{
			"name":"Cube.008",
			"primitives":[
				{
					"attributes":{
						"POSITION":12,
						"NORMAL":13,
						"TEXCOORD_0":14
					},
					"indices":15,
					"material":3
				}
			]
		},
		{
			"name":"Torus",
			"primitives":[
				{
					"attributes":{
						"POSITION":16,
						"NORMAL":17,
						"TEXCOORD_0":18
					},
					"indices":19
				}
			]
		},
		{
			"name":"Torus.001",
			"primitives":[
				{
					"attributes":{
						"POSITION":20,
						"NORMAL":21,
						"TEXCOORD_0":22
					},
					"indices":23
				}
			]
		}
	],
	"textures":[
		{
			"sampler":0,
			"source":0
		}
	],
	"images":[
		{
			"bufferView":16,
			"mimeType":"image/jpeg",
			"name":"leone"
		}
	],
	"accessors":[
		{
			"bufferView":0,
			"componentType":5126,
			"count":1482,
			"max":[
				0.3283834755420685,
				0.03940458968281746,
				0.09779446572065353
			],
			"min":[
				0.13017918169498444,
				-0.018599599599838257,
				-0.10040981322526932
			],
			"type":"VEC3"
		},
		{
			"bufferView":1,
			"componentType":5126,
			"count":1482,
			"type":"VEC3"
		},
		{
			"bufferView":2,
			"componentType":5126,
			"count":1482,
			"type":"VEC2"
		},
		{
			"bufferView":3,
			"componentType":5123,
			"count":2910,
			"type":"SCALAR"
		},
		{
			"bufferView":4,
			"componentType":5126,
			"count":9694,
			"max":[
				0.11364850401878357,
				0.06231972575187683,
				0.11725292354822159
			],
			"min":[
				-0.11725291609764099,
				-0.055763281881809235,
				-0.11725291609764099
			],
			"type":"VEC3"
		},
		{
			"bufferView":5,
			"componentType":5126,
			"count":9694,
			"type":"VEC3"
		},
		{
			"bufferView":6,
			"componentType":5126,
			"count":9694,
			"type":"VEC2"
		},
		{
			"bufferView":7,
			"componentType":5123,
			"count":25536,
			"type":"SCALAR"
		},
		{
			"bufferView":8,
			"componentType":5126,
			"count":96,
			"max":[
				0.04171385616064072,
				0.04585936665534973,
				0.03835756331682205
			],
			"min":[
				-0.048655252903699875,
				-0.0034985877573490143,
				-0.03948746994137764
			],
			"type":"VEC3"
		},
		{
			"bufferView":9,
			"componentType":5126,
			"count":96,
			"type":"VEC3"
		},
		{
			"bufferView":10,
			"componentType":5126,
			"count":96,
			"type":"VEC2"
		},
		{
			"bufferView":11,
			"componentType":5123,
			"count":168,
			"type":"SCALAR"
		},
		{
			"bufferView":12,
			"componentType":5126,
			"count":6,
			"max":[
				0.03828508034348488,
				0.04585936665534973,
				0.035313211381435394
			],
			"min":[
				-0.045185189694166183,
				0.04585936665534973,
				-0.03649915009737015
			],
			"type":"VEC3"
		},
		{
			"bufferView":13,
			"componentType":5126,
			"count":6,
			"type":"VEC3"
		},
		{
			"bufferView":14,
			"componentType":5126,
			"count":6,
			"type":"VEC2"
		},
		{
			"bufferView":15,
			"componentType":5123,
			"count":12,
			"type":"SCALAR"
		},
		{
			"bufferView":17,
			"componentType":5126,
			"count":710,
			"max":[
				0.954634428024292,
				0.2469024360179901,
				0.7879421710968018
			],
			"min":[
				-0.9722702503204346,
				-0.4431988596916199,
				-0.7879357933998108
			],
			"type":"VEC3"
		},
		{
			"bufferView":18,
			"componentType":5126,
			"count":710,
			"type":"VEC3"
		},
		{
			"bufferView":19,
			"componentType":5126,
			"count":710,
			"type":"VEC2"
		},
		{
			"bufferView":20,
			"componentType":5123,
			"count":1404,
			"type":"SCALAR"
		},
		{
			"bufferView":21,
			"componentType":5126,
			"count":162,
			"max":[
				-16.136341094970703,
				-0.7565473914146423,
				0.6428937315940857
			],
			"min":[
				-17.62104034423828,
				-1.4009816646575928,
				-0.6428939700126648
			],
			"type":"VEC3"
		},
		{
			"bufferView":22,
			"componentType":5126,
			"count":162,
			"type":"VEC3"
		},
		{
			"bufferView":23,
			"componentType":5126,
			"count":162,
			"type":"VEC2"
		},
		{
			"bufferView":24,
			"componentType":5123,
			"count":318,
			"type":"SCALAR"
		}
	],
	"bufferViews":[
		{
			"buffer":0,
			"byteLength":17784,
			"byteOffset":0,
			"target":34962
		},
		{
			"buffer":0,
			"byteLength":17784,
			"byteOffset":17784,
			"target":34962
		},
		{
			"buffer":0,
			"byteLength":11856,
			"byteOffset":35568,
			"target":34962
		},
		{
			"buffer":0,
			"byteLength":5820,
			"byteOffset":47424,
			"target":34963
		},
		{
			"buffer":0,
			"byteLength":116328,
			"byteOffset":53244,
			"target":34962
		},
		{
			"buffer":0,
			"byteLength":116328,
			"byteOffset":169572,
			"target":34962
		},
		{
			"buffer":0,
			"byteLength":77552,
			"byteOffset":285900,
			"target":34962
		},
		{
			"buffer":0,
			"byteLength":51072,
			"byteOffset":363452,
			"target":34963
		},
		{
			"buffer":0,
			"byteLength":1152,
			"byteOffset":414524,
			"target":34962
		},
		{
			"buffer":0,
			"byteLength":1152,
			"byteOffset":415676,
			"target":34962
		},
		{
			"buffer":0,
			"byteLength":768,
			"byteOffset":416828,
			"target":34962
		},
		{
			"buffer":0,
			"byteLength":336,
			"byteOffset":417596,
			"target":34963
		},
		{
			"buffer":0,
			"byteLength":72,
			"byteOffset":417932,
			"target":34962
		},
		{
			"buffer":0,
			"byteLength":72,
			"byteOffset":418004,
			"target":34962
		},
		{
			"buffer":0,
			"byteLength":48,
			"byteOffset":418076,
			"target":34962
		},
		{
			"buffer":0,
			"byteLength":24,
			"byteOffset":418124,
			"target":34963
		},
		{
			"buffer":0,
			"byteLength":89525,
			"byteOffset":418148
		},
		{
			"buffer":0,
			"byteLength":8520,
			"byteOffset":507676,
			"target":34962
		},
		{
			"buffer":0,
			"byteLength":8520,
			"byteOffset":516196,
			"target":34962
		},
		{
			"buffer":0,
			"byteLength":5680,
			"byteOffset":524716,
			"target":34962
		},
		{
			"buffer":0,
			"byteLength":2808,
			"byteOffset":530396,
			"target":34963
		},
		{
			"buffer":0,
			"byteLength":1944,
			"byteOffset":533204,
			"target":34962
		},
		{
			"buffer":0,
			"byteLength":1944,
			"byteOffset":535148,
			"target":34962
		},
		{
			"buffer":0,
			"byteLength":1296,
			"byteOffset":537092,
			"target":34962
		},
		{
			"buffer":0,
			"byteLength":636,
			"byteOffset":538388,
			"target":34963
		}
	],
	"samplers":[
		{
			"magFilter":9729,
			"minFilter":9987
		}
	],
	"buffers":[
		{
			"byteLength":539024,
			"uri":"data:application/octet-stream;base64,"
		}
	]
}
